<svg id="Layer_1" data-name="Layer 1" xmlns="http://www.w3.org/2000/svg" viewBox="0 0 246.16 72.37"><defs><style>.cls-1,.cls-2{fill:#f8c047;}.cls-2{font-size:36px;font-family:BrushScriptMT, Brush Script MT;}.cls-3{letter-spacing:-0.01em;}.cls-4{fill:#fff;}</style></defs><path class="cls-1" d="M146.13,344.33a36.45,36.45,0,1,0,13.62-2.64A36.17,36.17,0,0,0,146.13,344.33Zm-13.35,49a25.16,25.16,0,0,1-5.16-4.07,34.13,34.13,0,0,1-1.1-19,30.72,30.72,0,0,1,2.32-3.85c.27-.38.52-.77.81-1.14l8.16,4.83h0a63.77,63.77,0,0,0,1.32,13.3h0l-6.33,9.93Zm24.11,16.55a30.54,30.54,0,0,0,4.35,1.82,33.87,33.87,0,0,1-18.36-4.45l13.68,2.44Zm0-2.47-16.16-2.88a49.84,49.84,0,0,1-5.05-7.32c-.37-.66-.78-1.3-1.1-2l6.33-9.92.47.12a105.08,105.08,0,0,0,12,2.4,6.07,6.07,0,0,0,.61.08L161.56,401q-2,2.78-4,5.51C157.33,406.84,157.09,407.13,156.84,407.42Zm26.87-5.59a33.48,33.48,0,0,1-4.08,3.49,30.26,30.26,0,0,0-1.22-5.57l8.09-15.09a38.14,38.14,0,0,0,6.38-3.6,2.67,2.67,0,0,0,.64-.61A33.63,33.63,0,0,1,183.71,401.83Zm-.35-19.57c.3.57.59,1.15.89,1.74l-7.81,14.58-.14,0a71.12,71.12,0,0,1-12.78,1.23l-7.8-13.48q1.83-3.39,3.61-6.78c.81-1.54,1.61-3.09,2.4-4.63l16.15-1.66A91.2,91.2,0,0,1,183.36,382.26ZM180.08,365c-.77,2-1.59,4-2.4,6L162,372.61c-.18-.25-.38-.49-.58-.73-1.86-2.1-3.73-4.19-5.6-6.29l0,0-2.26-2.26,4.38-13.18a5.86,5.86,0,0,1,.91-.18c2.38-.24,4.77-.52,7.15-.65a34.27,34.27,0,0,1,4.42,0l10.83,12.21C180.88,362.63,180.51,363.81,180.08,365Zm3.63-11a33.63,33.63,0,0,1,6.94,10,34.33,34.33,0,0,0-6.46-3.47c-.35-.15-.72-.27-1.09-.4l-10.66-12a13.67,13.67,0,0,0,.13-1.56A33.53,33.53,0,0,1,183.71,353.91Zm-34.81-8,.08.06a27,27,0,0,1,6.75,3.55l-4.09,12.32-.06,0c-.84.35-1.69.66-2.52,1a74.3,74.3,0,0,0-9.82,5.3l-8.07-4.77a2.31,2.31,0,0,1,.14-.74c.54-1.44,1.08-2.89,1.69-4.31a31.35,31.35,0,0,1,1.6-3.17c.38-.42.78-.84,1.19-1.25A33.61,33.61,0,0,1,149,345.74S148.92,345.82,148.9,345.87Z" transform="translate(-123.56 -341.69)"/><text class="cls-2" transform="translate(88.85 33.23)">SPAR<tspan class="cls-3" x="92.21" y="0">T</tspan><tspan x="112.38" y="0">an</tspan></text><path class="cls-4" d="M213.47,398l2.16-12.49h1.84L215.27,398Zm4.28-5.09-.44-5.18h-.51l.39-2.22h1l.56,5.37h.07l-.18,2Zm.44,0,.63-2h.1l2.23-5.37h1.25l-.38,2.22h-.51l-2.25,5.17Zm1.73,5.1,2.2-12.49h1.8L221.73,398Z" transform="translate(-123.56 -341.69)"/><path class="cls-4" d="M226.72,398.19a2.43,2.43,0,0,1-1.85-.69,2.7,2.7,0,0,1-.65-1.93,6.22,6.22,0,0,1,.67-2.87,6.51,6.51,0,0,1,1.89-2.2,9,9,0,0,1,2.84-1.41,12.39,12.39,0,0,1,3.53-.49h.18l-1.16,6.62a1.29,1.29,0,0,0,.11,1,1.2,1.2,0,0,0,1,.32h.36l-.26,1.53h-.62a4,4,0,0,1-1.13-.13,1.48,1.48,0,0,1-.71-.43,1.63,1.63,0,0,1-.32-.78,4.74,4.74,0,0,1,0-1.18l.51.23h-1l.47-.51a4.45,4.45,0,0,1-1.5,2.14A3.79,3.79,0,0,1,226.72,398.19Zm.57-1.67a2.78,2.78,0,0,0,2.2-1.14,6.93,6.93,0,0,0,1.32-3.24l.46-2.55.71.68a7.52,7.52,0,0,0-2.3.46,6.5,6.5,0,0,0-1.87,1.08,5.22,5.22,0,0,0-1.26,1.59,4.3,4.3,0,0,0-.45,2,1.2,1.2,0,0,0,.31.87A1.22,1.22,0,0,0,227.29,396.52Z" transform="translate(-123.56 -341.69)"/><path class="cls-4" d="M234.87,398l1.65-9.32h1.55l-.06,2.22-1.25,7.1Zm5.7,0,1.08-6.2a1.77,1.77,0,0,0-.12-1.22,1,1,0,0,0-.93-.41,2.24,2.24,0,0,0-1.31.42,3.52,3.52,0,0,0-1.1,1.37,11,11,0,0,0-.83,2.61l.44-3.77h.39a2.86,2.86,0,0,1,1.11-1.7,3.37,3.37,0,0,1,2-.6,2.19,2.19,0,0,1,2,.85,3.49,3.49,0,0,1,.26,2.52L242.46,398Z" transform="translate(-123.56 -341.69)"/><path class="cls-4" d="M247.81,398.19a2.39,2.39,0,0,1-1.84-.69,2.66,2.66,0,0,1-.66-1.93,6.11,6.11,0,0,1,.68-2.87,6.48,6.48,0,0,1,1.88-2.2,9.1,9.1,0,0,1,2.84-1.41,12.44,12.44,0,0,1,3.53-.49h.18l-1.16,6.62a1.33,1.33,0,0,0,.11,1,1.23,1.23,0,0,0,1,.32h.36l-.27,1.53h-.62a4,4,0,0,1-1.13-.13,1.34,1.34,0,0,1-1-1.21,4.25,4.25,0,0,1,0-1.18l.51.23h-1l.47-.51a4.44,4.44,0,0,1-1.49,2.14A3.84,3.84,0,0,1,247.81,398.19Zm.57-1.67a2.8,2.8,0,0,0,2.21-1.14,7,7,0,0,0,1.32-3.24l.45-2.55.72.68a7.46,7.46,0,0,0-2.3.46,6.36,6.36,0,0,0-1.87,1.08,4.93,4.93,0,0,0-1.26,1.59,4.3,4.3,0,0,0-.45,2,1.16,1.16,0,0,0,.31.87A1.21,1.21,0,0,0,248.38,396.52Z" transform="translate(-123.56 -341.69)"/><path class="cls-4" d="M255.79,402.22l-.09-1.63,1.85-.11a5.31,5.31,0,0,0,1.87-.43,3.69,3.69,0,0,0,1.26-.9,4.39,4.39,0,0,0,.77-1.23,6.76,6.76,0,0,0,.39-1.4l1.17-6.63,2.05-1.29h.07l-1.36,7.64a10.85,10.85,0,0,1-.64,2.28,5.85,5.85,0,0,1-1.13,1.84,5.06,5.06,0,0,1-1.85,1.26,8.13,8.13,0,0,1-2.78.53Zm8-12a7.46,7.46,0,0,0-2.3.46,6.31,6.31,0,0,0-1.86,1.08,5,5,0,0,0-1.24,1.59,4.3,4.3,0,0,0-.45,2,1.16,1.16,0,0,0,.32.87,1.3,1.3,0,0,0,.91.3,2.61,2.61,0,0,0,1.57-.51,4,4,0,0,0,1.18-1.48,8.76,8.76,0,0,0,.73-2.39l.06-.35.91.74-1,3.45h-1l.42-.43a3.83,3.83,0,0,1-1.28,1.95,3.35,3.35,0,0,1-2.12.69,2.5,2.5,0,0,1-1.88-.69,2.66,2.66,0,0,1-.66-1.93,6.1,6.1,0,0,1,.67-2.87,6.51,6.51,0,0,1,1.89-2.2,9,9,0,0,1,2.84-1.41,12.51,12.51,0,0,1,3.54-.49h.16Z" transform="translate(-123.56 -341.69)"/><path class="cls-4" d="M271,396.51a5.63,5.63,0,0,0,1.51-.22,7.48,7.48,0,0,0,1.54-.61l.6,1.5a8.24,8.24,0,0,1-1.84.74,7.58,7.58,0,0,1-1.88.26,4,4,0,0,1-2.83-.95,3.42,3.42,0,0,1-1-2.64,7,7,0,0,1,.69-3.19,5.24,5.24,0,0,1,1.93-2.13,5.49,5.49,0,0,1,2.89-.76,3,3,0,0,1,2,.65,2.33,2.33,0,0,1,.73,1.81,3,3,0,0,1-1.77,2.72,10.51,10.51,0,0,1-4.91,1.05l-.19-1.4a9.51,9.51,0,0,0,3.67-.63q1.32-.58,1.32-1.62a.86.86,0,0,0-.29-.67,1.28,1.28,0,0,0-.83-.24,3.19,3.19,0,0,0-1.84.54,3.54,3.54,0,0,0-1.24,1.5,5.33,5.33,0,0,0-.45,2.26,2,2,0,0,0,.58,1.5A2.3,2.3,0,0,0,271,396.51Z" transform="translate(-123.56 -341.69)"/><path class="cls-4" d="M286.46,402.16l-.08-1.67.64-.07a4,4,0,0,0,1.83-.6,3.11,3.11,0,0,0,1.07-1.36,7.16,7.16,0,0,0,.46-2.14l.65-6a8.69,8.69,0,0,1,.78-3.22,4.06,4.06,0,0,1,1.87-1.88,7.14,7.14,0,0,1,3.19-.61,5.78,5.78,0,0,1,1.46.17l-.47,1.62c-.27-.05-.51-.08-.72-.1s-.41,0-.61,0a3.23,3.23,0,0,0-2.61,1,5.35,5.35,0,0,0-1,3l-.71,6.31a8,8,0,0,1-.7,2.84,4.31,4.31,0,0,1-1.64,1.82,6.9,6.9,0,0,1-2.8.85Zm1.26-9.78.29-1.63h8.62l-.29,1.63Z" transform="translate(-123.56 -341.69)"/><path class="cls-4" d="M301.91,398.18a3.26,3.26,0,0,1-2.43-.89,3.37,3.37,0,0,1-.88-2.48,7.3,7.3,0,0,1,1.33-4.64,4.46,4.46,0,0,1,3.68-1.66,3.2,3.2,0,0,1,2.43.92,3.51,3.51,0,0,1,.88,2.55,7,7,0,0,1-1.33,4.56A4.47,4.47,0,0,1,301.91,398.18Zm.32-1.66a2.35,2.35,0,0,0,2.06-1.1,5.42,5.42,0,0,0,.75-3.07,2.57,2.57,0,0,0-.44-1.59,1.5,1.5,0,0,0-1.24-.58,2.45,2.45,0,0,0-2.12,1.1,5.36,5.36,0,0,0-.76,3.06,2.46,2.46,0,0,0,.47,1.6A1.52,1.52,0,0,0,302.23,396.52Z" transform="translate(-123.56 -341.69)"/><path class="cls-4" d="M312.45,398.18a3.29,3.29,0,0,1-2.43-.89,3.41,3.41,0,0,1-.87-2.48,7.24,7.24,0,0,1,1.33-4.64,4.46,4.46,0,0,1,3.68-1.66,3.2,3.2,0,0,1,2.43.92,3.55,3.55,0,0,1,.87,2.55,7.08,7.08,0,0,1-1.32,4.56A4.48,4.48,0,0,1,312.45,398.18Zm.33-1.66a2.36,2.36,0,0,0,2.06-1.1,5.51,5.51,0,0,0,.74-3.07,2.51,2.51,0,0,0-.44-1.59,1.46,1.46,0,0,0-1.23-.58,2.44,2.44,0,0,0-2.12,1.1,5.28,5.28,0,0,0-.76,3.06,2.46,2.46,0,0,0,.46,1.6A1.55,1.55,0,0,0,312.78,396.52Z" transform="translate(-123.56 -341.69)"/><path class="cls-4" d="M319.74,390.32l.29-1.63h8.21l-.29,1.63Zm4.55,7.86a3.42,3.42,0,0,1-2.37-.69,2.76,2.76,0,0,1-.76-2.15c0-.24,0-.48,0-.71s.06-.47.11-.76l.18-1,1.22-7h1.89l-1.22,7q-.15.87-.24,1.35a5.25,5.25,0,0,0-.09,1,1.29,1.29,0,0,0,.38,1,1.92,1.92,0,0,0,1.22.32,5.36,5.36,0,0,0,1.12-.1,7.27,7.27,0,0,0,1.15-.38l.34,1.5a9,9,0,0,1-1.33.46A6.24,6.24,0,0,1,324.29,398.18Z" transform="translate(-123.56 -341.69)"/><path class="cls-4" d="M331.07,384.64a2.5,2.5,0,0,1,2.1.74,3,3,0,0,1,.27,2.37L331.64,398h-1.89l1.84-10.43a1.42,1.42,0,0,0-.07-1,.78.78,0,0,0-.73-.31l-.44,0a3.25,3.25,0,0,0-.43.08l-.19-1.6a5.5,5.5,0,0,1,.67-.11C330.62,384.65,330.85,384.64,331.07,384.64Zm1.23,13.54c-.43,0-.85,0-1.27-.05s-.85-.07-1.28-.13l.88-1.71a5.54,5.54,0,0,0,1.86.22,4.61,4.61,0,0,0,1.84-.36,4.82,4.82,0,0,0,1.49-1,4.66,4.66,0,0,0,1-1.54,5.15,5.15,0,0,0,.35-1.91,1.73,1.73,0,0,0-.32-1.11,1.15,1.15,0,0,0-.93-.39,2.81,2.81,0,0,0-1.46.46,4,4,0,0,0-1.33,1.43,7.56,7.56,0,0,0-.87,2.53l.34-3.79h.77l-.46.67a3.62,3.62,0,0,1,1.28-2.19,3.78,3.78,0,0,1,2.44-.78,2.26,2.26,0,0,1,1.79.74,3.1,3.1,0,0,1,.63,2.08,7.3,7.3,0,0,1-.5,2.71,6.56,6.56,0,0,1-3.56,3.63A6.9,6.9,0,0,1,332.3,398.18Z" transform="translate(-123.56 -341.69)"/><path class="cls-4" d="M342.73,398.19a2.41,2.41,0,0,1-1.84-.69,2.65,2.65,0,0,1-.65-1.93,6.1,6.1,0,0,1,.67-2.87,6.59,6.59,0,0,1,1.88-2.2,9.1,9.1,0,0,1,2.84-1.41,12.46,12.46,0,0,1,3.54-.49h.17l-1.16,6.62a1.38,1.38,0,0,0,.11,1,1.23,1.23,0,0,0,1,.32h.36l-.27,1.53h-.62a4,4,0,0,1-1.13-.13,1.34,1.34,0,0,1-1-1.21,4.68,4.68,0,0,1,0-1.18l.51.23h-1l.47-.51a4.44,4.44,0,0,1-1.49,2.14A3.84,3.84,0,0,1,342.73,398.19Zm.57-1.67a2.8,2.8,0,0,0,2.21-1.14,6.93,6.93,0,0,0,1.32-3.24l.46-2.55.71.68a7.46,7.46,0,0,0-2.3.46,6.36,6.36,0,0,0-1.87,1.08,4.93,4.93,0,0,0-1.26,1.59,4.3,4.3,0,0,0-.45,2,1.16,1.16,0,0,0,.31.87A1.21,1.21,0,0,0,343.3,396.52Z" transform="translate(-123.56 -341.69)"/><path class="cls-4" d="M356.32,398.18a3,3,0,0,1-2.15-.67,2.82,2.82,0,0,1-.69-2.09,4.62,4.62,0,0,1,.06-.7,8.27,8.27,0,0,1,.2-.89l1.36-5.32a2.81,2.81,0,0,0,.07-1.71c-.17-.34-.64-.51-1.42-.51a4.44,4.44,0,0,0-.62,0,2.54,2.54,0,0,0-.62.18l-.27-1.6c.3-.08.59-.15.89-.2a5.46,5.46,0,0,1,.9-.07,3.25,3.25,0,0,1,2.76,1,3.53,3.53,0,0,1,.2,3l-1.36,5.21a7.81,7.81,0,0,0-.21.89,3.89,3.89,0,0,0-.06.62c0,.78.44,1.17,1.3,1.17a3,3,0,0,0,.94-.13,5.52,5.52,0,0,0,1-.44l.61,1.42a7.58,7.58,0,0,1-1.3.58A4.65,4.65,0,0,1,356.32,398.18Z" transform="translate(-123.56 -341.69)"/><path class="cls-4" d="M366.87,398.18a3,3,0,0,1-2.15-.67,2.82,2.82,0,0,1-.69-2.09,4.62,4.62,0,0,1,.06-.7c0-.26.11-.56.19-.89l1.37-5.32a2.79,2.79,0,0,0,.06-1.71c-.16-.34-.63-.51-1.42-.51a4.3,4.3,0,0,0-.61,0,2.42,2.42,0,0,0-.62.18l-.27-1.6a8.82,8.82,0,0,1,.89-.2,5.34,5.34,0,0,1,.89-.07,3.29,3.29,0,0,1,2.77,1,3.53,3.53,0,0,1,.2,3l-1.37,5.21c-.09.35-.16.64-.2.89a3.89,3.89,0,0,0-.06.62c0,.78.43,1.17,1.3,1.17a3,3,0,0,0,.94-.13,5.87,5.87,0,0,0,1-.44l.6,1.42a7.48,7.48,0,0,1-1.29.58A4.73,4.73,0,0,1,366.87,398.18Z" transform="translate(-123.56 -341.69)"/></svg>