<svg id="Layer_1" data-name="Layer 1" xmlns="http://www.w3.org/2000/svg" viewBox="0 0 440.59 440.59"><defs><style>.cls-1{fill:#fff;}.cls-2,.cls-3{fill:#11a24a;}.cls-3{stroke:#231f20;stroke-miterlimit:10;}.cls-4{fill:#231f20;}</style></defs><circle class="cls-1" cx="220.3" cy="220.3" r="220.3"/><circle class="cls-2" cx="220.3" cy="220.3" r="210.3"/><circle class="cls-1" cx="220.3" cy="220.3" r="135.3"/><circle class="cls-3" cx="220.3" cy="220.3" r="125.3"/><path class="cls-1" d="M163,377.46c-3.07-.6-5.55-1-7.42-1.24a24,24,0,0,0,2.58-3.87,16.74,16.74,0,0,0,1.26-3.17,7,7,0,0,0,.22-3.09,1.77,1.77,0,0,0-1.32-1.51,2.52,2.52,0,0,0-.72-.07,2.68,2.68,0,0,0-.85.21,6,6,0,0,0-1.13.62l-4.52,3.1c-1,.74-1.78,1.24-2.23,1.52a13.16,13.16,0,0,1-2.48,1.23,7.27,7.27,0,0,1-2.14.43,7.55,7.55,0,0,1-2.13-.25,7.48,7.48,0,0,1-2.42-1.11,7.89,7.89,0,0,1-2-2,8.06,8.06,0,0,1-1.25-2.91,11.43,11.43,0,0,1-.24-3.51,22.19,22.19,0,0,1,.64-3.62,42.43,42.43,0,0,1,2.85-7.62c1,.21,1.9.4,2.73.55s2.3.39,4.39.71a20.07,20.07,0,0,0-2,3.29,15.73,15.73,0,0,0-1,2.7,5.74,5.74,0,0,0-.09,2.92,1.84,1.84,0,0,0,1.24,1.49,2.17,2.17,0,0,0,.88,0,3.71,3.71,0,0,0,1.11-.39,11.54,11.54,0,0,0,1.51-.93c.57-.39,1.41-1,2.55-1.9l1.61-1.22a19.16,19.16,0,0,1,1.72-1.12,14.75,14.75,0,0,1,1.9-1,9.68,9.68,0,0,1,1.63-.52,6.83,6.83,0,0,1,1.41-.12,6.11,6.11,0,0,1,1.43.21,8.08,8.08,0,0,1,5.59,5.19,11.13,11.13,0,0,1,.61,4.1,20.64,20.64,0,0,1-.65,4.36A50.79,50.79,0,0,1,163,377.46Z" transform="translate(-95.7 -185.78)"/><path class="cls-1" d="M169.83,353.56l-5-2.71-9.79-5-7-3.41c-.75-.36-1.51-.71-2.27-1.05-.58-.26-1.52-.68-2.84-1.25q1.26-2.62,2-4.23c.46-1,1.07-2.45,1.81-4.26s1.4-3.35,2-4.6a18.73,18.73,0,0,1,2.14-3.82,7.92,7.92,0,0,1,2.12-1.85,7.67,7.67,0,0,1,2.49-1,7.82,7.82,0,0,1,2.69,0,10.71,10.71,0,0,1,2.71.81,10.46,10.46,0,0,1,4.32,3.52,8.93,8.93,0,0,1,1.68,5.16,13.79,13.79,0,0,1-1.29,5.81,17.72,17.72,0,0,1-1.37,2.39c-.67-.17-1.67-.38-3-.63s-2.36-.42-3-.5a9.73,9.73,0,0,0,1-1.76,4.56,4.56,0,0,0,.39-3.46,3.5,3.5,0,0,0-1.93-2.06,3.44,3.44,0,0,0-1.31-.32,2.13,2.13,0,0,0-1.19.31,2.67,2.67,0,0,0-.91.86,7.58,7.58,0,0,0-.7,1.28c-.22.48-.43,1-.64,1.52l-.64,1.73q3.75,2,8.42,4.27,8.49,4.14,10.22,4.92l2.6,1.17-1.83,4C171.41,349.94,170.8,351.33,169.83,353.56Z" transform="translate(-95.7 -185.78)"/><path class="cls-1" d="M179.08,331l-1.48-3.34L167,305.92l-1.23-2.39c-.36-.7-.89-1.69-1.58-3q2.31-3.1,3.35-4.54,1.83-2.5,3.34-4.67l9.3,2.8,18.08,5.1,3.35.85-2.76,3.71-3.16,4.42q-3.49-1.35-8.53-2.76l-6.51,8.94q2,3.82,4.57,8.21l-3,4C181.56,327.55,180.52,329,179.08,331ZM177,308.5l4-5.52q-7.75-2.49-8.54-2.76c1.17,2,2.12,3.74,2.83,5.1Z" transform="translate(-95.7 -185.78)"/><path class="cls-1" d="M203.19,299.09c-1.5-2.12-2.88-4-4.12-5.66s-2.73-3.54-4.45-5.66-3.55-4.33-5.51-6.64-3.53-4.12-4.72-5.46c1.4-1.18,2.53-2.15,3.37-2.89s1.93-1.75,3.15-2.92,2.42-2.27,3.62-3.33a49.15,49.15,0,0,1,3.9-3.15,12.64,12.64,0,0,1,2.66-1.51,8.76,8.76,0,0,1,2.49-.63,7.14,7.14,0,0,1,2.18.15,6.41,6.41,0,0,1,2,.87,9,9,0,0,1,1.9,1.63,9.6,9.6,0,0,1,1.54,2.31,8.11,8.11,0,0,1,.72,2.59,7.65,7.65,0,0,1-.22,2.8,18.07,18.07,0,0,1-1.44,3.53l2.7,1.33c.76.37,1.54.73,2.35,1.09l6.47,2.88c.28.12.82.37,1.61.77l-3.68,3.19c-.79.7-2.07,1.85-3.85,3.47l-3.77-2.34c-.75-.48-1.36-.84-1.8-1.07-1-.55-2.3-1.29-4.06-2.24L200.45,279a12.75,12.75,0,0,0,1.89-1.38,8.37,8.37,0,0,0,1.86-2.29,3.86,3.86,0,0,0,.49-2.43,3.75,3.75,0,0,0-.91-2,2.8,2.8,0,0,0-1.47-.91,3,3,0,0,0-1.9.26,11.59,11.59,0,0,0-2.75,2c-.38.33-.77.7-1.17,1.08s-.86.81-1.4,1.31q2.78,3.56,6.9,8.56c2.76,3.33,5.49,6.57,8.22,9.72q-2.79,2.4-3.61,3.13C206,296.57,204.83,297.6,203.19,299.09Z" transform="translate(-95.7 -185.78)"/><path class="cls-1" d="M232.59,275.48q-4.47-9.75-10.8-20.92l-7.94,5-1.14-2.16c-.61-1.15-1.3-2.4-2.06-3.76q5.4-3.12,12.55-7.34l4.66-2.78,4.54-2.67,2.45-1.47,1,1.92c.54,1,1,1.87,1.35,2.53s.64,1.15.84,1.49q-4.17,2.17-6.8,3.72l-1.32.78q1.68,3.51,3.2,6.44c1.45,2.79,2.9,5.48,4.32,8.08S240,269,241,270.55l-4,2.33Z" transform="translate(-95.7 -185.78)"/><path class="cls-1" d="M247.35,265.84l.72-3.58,3.9-23.91.38-2.66c.11-.78.25-1.89.42-3.34q3.67-1.2,5.36-1.77,2.94-1,5.42-1.88l6,7.65L281.35,251l2.24,2.63c-2.41.78-3.88,1.26-4.39,1.44-1.17.39-2.88,1-5.13,1.78q-2.08-3.12-5.38-7.18l-10.47,3.55q-.57,4.28-1,9.34l-4.77,1.57Q250.86,264.61,247.35,265.84Zm11.33-19.58,6.47-2.19q-4.89-6.52-5.38-7.19-.33,3.52-.63,5.8Z" transform="translate(-95.7 -185.78)"/><path class="cls-1" d="M285.48,253.4v-4.63l-.61-15.66-.35-6.3-.32-3.41c2.27-.18,4.27-.36,6-.52l5.23-.54,10.94,16.11,1.52,2.37q-.11-3.7-.46-10.35t-.61-9.2c1.8-.14,3.23-.26,4.31-.36.5,0,1.92-.19,4.28-.44l.09,6.56.72,18.21.36,5.24c-1.9.15-3.68.3-5.33.46q-2.06.19-5.68.58c-.9-1.36-1.56-2.35-2-3l-4.26-5.9c-1.4-1.93-2.69-3.78-3.89-5.55q-1.17-1.68-2.44-3.7l.5,10.42.6,8.75c-1.81.14-3.19.26-4.13.35S287.67,253.17,285.48,253.4Z" transform="translate(-95.7 -185.78)"/><path class="cls-1" d="M332.4,250.89l1.54-4.2,4.8-14.7,3-9.73c2.62.64,4.69,1.13,6.19,1.48l5.73,1.29c-.1,1.27-.16,2.24-.18,2.9s0,2,.08,3.94.11,3.66.11,5.08-.09,3.84-.24,7.24q1.73-3.13,3.06-5.38t3.21-5.05q1.88-2.81,2.41-3.69c.35-.59.86-1.49,1.52-2.72,2.13.52,4.23,1,6.28,1.5l5.84,1.31q-2.08,7.13-3.42,12.27-2.64,10.08-3.52,13.89c-.12.52-.33,1.48-.62,2.87l-3.95-1c-1.1-.25-2.45-.55-4.06-.89q.62-1.89,2.57-9.08c1.29-4.78,2.1-7.85,2.41-9.19.13-.59.31-1.4.52-2.45l-4.83,8.06L354,255.9l-3.83-.94-4.07-.9.1-12.38-.09-6.63c0-.26,0-.57,0-1s.05-1,.1-2l-1.92,5.8-3.54,12-.7,2.72-3.75-.92Z" transform="translate(-95.7 -185.78)"/><path class="cls-1" d="M369.07,259.13l3.09-2,20-13.72,2.18-1.57c.64-.46,1.54-1.13,2.71-2q3.41,1.83,5,2.66c1.83.95,3.54,1.82,5.11,2.61l-1.4,9.6-2.37,18.65-.35,3.43-4.07-2.18-4.84-2.47c.54-2.44,1-5.39,1.47-8.85l-9.81-5.11q-3.48,2.54-7.44,5.73c-2.41-1.29-3.88-2.08-4.43-2.36C372.88,261.06,371.28,260.25,369.07,259.13Zm22-5.36,6.05,3.15q1.32-8,1.47-8.85-2.77,2.19-4.62,3.55Z" transform="translate(-95.7 -185.78)"/><path class="cls-1" d="M404.49,278l3.33-3.22,10.83-11.32,4.29-4.64,2.23-2.6c1.71,1.5,3.22,2.82,4.55,4l4,3.39-4,19.05-.65,2.75q2.6-2.65,7.12-7.54t6.19-6.82c1.35,1.19,2.43,2.14,3.26,2.84q.56.49,3.29,2.77l-4.66,4.63-12.58,13.17-3.52,3.91q-2.14-1.9-4-3.51c-1.05-.9-2.5-2.13-4.37-3.69.36-1.58.6-2.74.75-3.47l1.27-7.15q.62-3.52,1.28-6.66c.26-1.34.59-2.78,1-4.33L417,277.08l-5.88,6.51L408,280.86Z" transform="translate(-95.7 -185.78)"/><path class="cls-1" d="M429.54,298.83l3.63-.38,24-3.36,2.65-.42,3.32-.59q2.24,3.15,3.28,4.6,1.81,2.51,3.4,4.61l-5.54,8-10.44,15.63L452,329.8q-2.19-3.1-2.67-3.76c-.73-1-1.8-2.46-3.23-4.37q2.37-2.91,5.27-7.26l-6.49-9c-2.84.48-5.91,1.09-9.23,1.81q-2.36-3.35-2.9-4.09Zm22.06,5,4,5.52q4.77-6.6,5.27-7.26c-2.31.48-4.21.85-5.72,1.11Z" transform="translate(-95.7 -185.78)"/><path class="cls-1" d="M475.6,341q1.14,2.79,2.19,5.3c1.21,2.86,2.17,5.1,2.88,6.7q-2.88.92-8.08,2.79t-7.81,2.91c-.94-1.44-1.69-2.64-2.24-3.6s-1.2-2.14-1.9-3.53-1.3-2.64-1.77-3.76a34.81,34.81,0,0,1-1.84-5.59,19.68,19.68,0,0,1-.57-5.36,10.79,10.79,0,0,1,1.22-4.62,13.14,13.14,0,0,1,3.12-3.86,16.63,16.63,0,0,1,4.49-2.8,16.21,16.21,0,0,1,8.5-1.18,15.82,15.82,0,0,1,8.06,3.53,22.63,22.63,0,0,1,6.24,9,54.54,54.54,0,0,1,3.07,10.26c-2,.84-4.12,1.85-6.46,3.05-.09-1.11-.18-2-.26-2.67s-.23-1.44-.42-2.31-.42-1.66-.66-2.41-.47-1.41-.71-2a15.05,15.05,0,0,0-2.42-3.94,9.79,9.79,0,0,0-3.4-2.58,9.17,9.17,0,0,0-4.07-.8,11.64,11.64,0,0,0-4.19.94,8.86,8.86,0,0,0-3.37,2.38,5.78,5.78,0,0,0-1.39,3.61,9.41,9.41,0,0,0,.81,4.29,17.48,17.48,0,0,0,2.19,3.72l4.49-1.62q-.49-1.35-.6-1.59l-.93-2.14,2.55-.91,1.19-.43C474,341.68,474.72,341.4,475.6,341Z" transform="translate(-95.7 -185.78)"/><path class="cls-1" d="M465.47,363.71c3.78-.37,6.93-.72,9.47-1s5.88-.82,10.06-1.48,6.95-1.11,8.3-1.38l1.89-.4q1,5.1,2.39,12.32,1.32,6.66,2.37,11.74l-.72.09-1.89.26-2.37.34c-.5.07-1,.15-1.53.26-.43-2.8-.84-5.14-1.21-7-.41-2.07-.69-3.47-.84-4.19s-.41-1.85-.77-3.38l-5,.72q.43,2.56,1.11,5.94.24,1.22,1.42,6.4c-1.87.22-4.08.52-6.65.89q-.71-3.74-1.09-5.74-.6-3-1.47-6.62l-5.29.78.49,2.47c.15.74.47,2.25,1,4.54l1,4.43c.15.66.43,1.75.83,3.29-2.16.24-4.38.54-6.68.87q-1-5.27-2.24-11.54l-1.9-9.48Z" transform="translate(-95.7 -185.78)"/><path class="cls-1" d="M187.07,540.36c1.92-1.82,3.45-3.31,4.57-4.46q2.49-2.55,6.71-7.13t5.61-6.21l1.4-1.63q4.44,3.87,8.28,7.16t7.46,6.35q-3.16,3.21-4.06,4.26l-1.25-1.15-1-.91-1-.9-2.92-2.51-3-2.5-3.1,3.34,2.12,1.89,2.4,2.06c.69.59,1.76,1.49,3.21,2.68q-2.58,2.65-3.93,4.25c-1.55-1.42-2.71-2.45-3.48-3.11q-2-1.68-4.32-3.59L196,543.46l-1.72,2-.56.65-3.17-2.77Z" transform="translate(-95.7 -185.78)"/><path class="cls-1" d="M242.31,546.61a21.47,21.47,0,0,1,4.93,3.56,13.56,13.56,0,0,1,3.21,4.74,11.92,11.92,0,0,1,.87,5.27,13.25,13.25,0,0,1-1.64,5.39,15.09,15.09,0,0,1-3.86,4.77,12.57,12.57,0,0,1-5.19,2.52,14,14,0,0,1-6,0,23.14,23.14,0,0,1-6.09-2.22,22.62,22.62,0,0,1-5.19-3.74A13.59,13.59,0,0,1,220,562a11.22,11.22,0,0,1-.78-5.31,14.31,14.31,0,0,1,1.65-5.12,14.06,14.06,0,0,1,5.27-5.71,13.28,13.28,0,0,1,7.56-1.71A20.61,20.61,0,0,1,242.31,546.61Zm-3.06,5a7.71,7.71,0,0,0-4.11-.93,7.32,7.32,0,0,0-3.9,1.41,9.2,9.2,0,0,0-2.83,3.26,8,8,0,0,0-1,3.76,6.21,6.21,0,0,0,1.13,3.64,8.1,8.1,0,0,0,2.95,2.66,7.68,7.68,0,0,0,4,.9,7.08,7.08,0,0,0,3.86-1.4,9.39,9.39,0,0,0,2.76-3.19,8.67,8.67,0,0,0,1-3.82,6.4,6.4,0,0,0-1-3.64A7.51,7.51,0,0,0,239.25,551.64Z" transform="translate(-95.7 -185.78)"/><path class="cls-1" d="M281,560.85a21.44,21.44,0,0,1,5.67,2.18,13.45,13.45,0,0,1,4.32,3.76,11.92,11.92,0,0,1,2.19,4.87,13.37,13.37,0,0,1-.2,5.63,15,15,0,0,1-2.52,5.6,12.76,12.76,0,0,1-4.37,3.77,14,14,0,0,1-5.81,1.52,23.46,23.46,0,0,1-12.43-2.86,13.68,13.68,0,0,1-4.49-3.93,11.18,11.18,0,0,1-2.11-4.94,14.28,14.28,0,0,1,.29-5.36,14,14,0,0,1,3.63-6.87,13.16,13.16,0,0,1,6.87-3.59A20.5,20.5,0,0,1,281,560.85Zm-1.68,5.65a7.66,7.66,0,0,0-4.2.15,7.36,7.36,0,0,0-3.42,2.36,9.28,9.28,0,0,0-1.9,3.88,8.12,8.12,0,0,0,0,3.89,6.33,6.33,0,0,0,2,3.23,8.16,8.16,0,0,0,3.53,1.81,7.58,7.58,0,0,0,4.12-.16,7,7,0,0,0,3.37-2.34,9.47,9.47,0,0,0,1.86-3.79,8.55,8.55,0,0,0,0-4,6.36,6.36,0,0,0-1.89-3.26A7.47,7.47,0,0,0,279.28,566.5Z" transform="translate(-95.7 -185.78)"/><path class="cls-1" d="M310.83,592q1-9.5,1.21-20.9l-8.31.2.1-2.17c.06-1.16.1-2.43.13-3.81q5.54.06,12.92.07h12.05l-.12,1.91c-.06,1-.09,1.88-.11,2.55s0,1.17,0,1.51c-2.78-.14-5.08-.22-6.88-.23h-1.37q-.3,3.45-.47,6.38c-.15,2.79-.26,5.5-.35,8.13s-.13,4.76-.13,6.39l-4.14-.05Z" transform="translate(-95.7 -185.78)"/><path class="cls-1" d="M341.13,590.65q-.47-4.29-.82-6.73-.48-3.33-1.47-9.11t-1.47-8.13l-.51-2.37c1.71-.31,3.06-.56,4.05-.77,1.39-.28,3-.64,4.84-1.08s3.43-.78,4.75-1.06a31.91,31.91,0,0,1,3.44-.56,8.9,8.9,0,0,1,2.47.14,5.53,5.53,0,0,1,1.89.74,5.64,5.64,0,0,1,1.55,1.6,7.42,7.42,0,0,1,1,2.53A7.78,7.78,0,0,1,361,568a6.56,6.56,0,0,1-.42,1.93,5.89,5.89,0,0,1-.88,1.52,6.27,6.27,0,0,1-1.07,1.06,10.88,10.88,0,0,1-1.5.9,10.83,10.83,0,0,1,1.71.06,6,6,0,0,1,1.45.44,5.36,5.36,0,0,1,1.51,1,5.82,5.82,0,0,1,1.19,1.54,7.38,7.38,0,0,1,.68,1.95,7.73,7.73,0,0,1,.08,2.83,6.57,6.57,0,0,1-.89,2.48,6.06,6.06,0,0,1-1.62,1.72,9.51,9.51,0,0,1-2.23,1.26c-.65.23-1.84.56-3.58,1s-3.6.81-5.56,1.21l-5,1ZM346.4,573l2.72-.56q1.33-.27,1.89-.45a6.22,6.22,0,0,0,1.05-.47,2.3,2.3,0,0,0,.82-.76,2.42,2.42,0,0,0,.37-1,3.16,3.16,0,0,0,0-1,2.48,2.48,0,0,0-.6-1.2,2,2,0,0,0-1.24-.6,7.27,7.27,0,0,0-2.34.2l-3.44.7Zm1.75,10.78,3.67-.75a9.25,9.25,0,0,0,2.11-.61,3.31,3.31,0,0,0,1.17-.81,2.36,2.36,0,0,0,.51-1.08,3.38,3.38,0,0,0,0-1.38,2.87,2.87,0,0,0-.44-1.07,2.15,2.15,0,0,0-.79-.67,2.72,2.72,0,0,0-1.13-.26,9.45,9.45,0,0,0-1.95.25l-4,.83Z" transform="translate(-95.7 -185.78)"/><path class="cls-1" d="M377.09,582.48l.31-3.23,1.29-21.5.09-2.38c0-.7.05-1.7.07-3q3.15-1.39,4.59-2,2.51-1.14,4.62-2.15l6,6.22,11.78,11.84,2.22,2.13L404.27,570q-1.49.68-4.37,2-2.13-2.58-5.4-5.86l-8.95,4.08c-.07,2.55-.09,5.34,0,8.35-2.22,1-3.58,1.59-4.07,1.82C380.53,580.87,379.09,581.54,377.09,582.48Zm8.25-18.34,5.52-2.52q-4.92-5.32-5.4-5.87c0,2.09,0,3.82,0,5.18Z" transform="translate(-95.7 -185.78)"/><path class="cls-1" d="M419,561.15q-2.35-4-3.92-6.46-2.84-4.5-5.8-8.84c-2-2.89-3.63-5.22-5-7q2.16-1.56,3.8-2.77l3.17-2.41,3.84,6,6.13,9.23,1.55,2.22c1.82-1.3,3-2.16,3.55-2.56,2.75-2,4.8-3.63,6.16-4.75l3.17,5q-4.14,3-7.87,5.81Q422.73,558.3,419,561.15Z" transform="translate(-95.7 -185.78)"/><path class="cls-1" d="M444.6,540.66c-2-2.34-3.68-4.23-5-5.66q-3.6-3.94-7.28-7.68t-6.11-6q1.84-1.9,3.25-3.4c.63-.67,1.53-1.65,2.69-2.93l4.83,5.19,7.66,8,1.92,1.92q2.35-2.41,3-3.15,3.52-3.75,5.23-5.76l4,4.35q-3.54,3.72-6.72,7.1Q447.82,537.19,444.6,540.66Z" transform="translate(-95.7 -185.78)"/><path class="cls-4" d="M132.48,424.52q0-.37,0-.6l.05-1.42c.82-.73,1.56-1.43,2.24-2.11s1.36-1.41,2.06-2.19,1.24-1.4,1.59-1.88a6.09,6.09,0,0,0,.59-.86,1.94,1.94,0,0,0,.19-.49,1.37,1.37,0,0,0,.05-.4,1.21,1.21,0,0,0-.32-.88,2.1,2.1,0,0,0-.88-.52,4,4,0,0,0-1.31-.19,10,10,0,0,0-1.48.12c-.53.08-1.22.22-2.06.43l.18-1c0-.24.1-.63.18-1.18a23.64,23.64,0,0,1,4.34-.41,9,9,0,0,1,1.82.18,4.64,4.64,0,0,1,1.57.61,3,3,0,0,1,1,1,2.43,2.43,0,0,1,.31,1.19,3.64,3.64,0,0,1-.07.74,3.1,3.1,0,0,1-.21.67,8.73,8.73,0,0,1-.67,1.22,17.61,17.61,0,0,1-1.27,1.64c-.58.69-1.2,1.38-1.88,2.1s-1.44,1.47-2.28,2.26h3.07q1.08,0,1.59,0c.34,0,.75,0,1.22-.09,0,.2,0,.46-.06.79s-.06.75-.1,1.28l-4.61,0Z" transform="translate(-95.7 -185.78)"/><path class="cls-4" d="M150.21,411a5,5,0,0,1,2.64.66,4.35,4.35,0,0,1,1.71,2.12,8.86,8.86,0,0,1,.6,3.4,12.66,12.66,0,0,1-.37,3.05,7.94,7.94,0,0,1-1,2.5,4.4,4.4,0,0,1-1.8,1.52,5.57,5.57,0,0,1-2.43.54,5,5,0,0,1-2.23-.48,4.07,4.07,0,0,1-1.6-1.36,5.33,5.33,0,0,1-.86-2,10.39,10.39,0,0,1-.24-2.24,13.14,13.14,0,0,1,.37-3.13,7.62,7.62,0,0,1,1.07-2.58,4.29,4.29,0,0,1,1.81-1.54A5.54,5.54,0,0,1,150.21,411Zm-.07,2a2.06,2.06,0,0,0-.73.14,2.18,2.18,0,0,0-.7.49,2.74,2.74,0,0,0-.55.78,6.45,6.45,0,0,0-.4,1.09,9.08,9.08,0,0,0-.29,1.53,15.27,15.27,0,0,0-.1,1.8,7.23,7.23,0,0,0,.27,2.17,2.69,2.69,0,0,0,.8,1.29,1.83,1.83,0,0,0,1.23.46,1.92,1.92,0,0,0,.74-.15,2.14,2.14,0,0,0,.74-.57,3.87,3.87,0,0,0,.68-1.23,8.82,8.82,0,0,0,.43-1.77,14,14,0,0,0,.14-1.95,8.12,8.12,0,0,0-.26-2.23,2.9,2.9,0,0,0-.78-1.37A1.72,1.72,0,0,0,150.14,413Z" transform="translate(-95.7 -185.78)"/><path class="cls-4" d="M481.13,432.11c0-.25,0-.44,0-.59l.06-1.43c.82-.73,1.56-1.43,2.23-2.11s1.36-1.41,2.07-2.19,1.23-1.4,1.59-1.87a7.89,7.89,0,0,0,.59-.87,2.42,2.42,0,0,0,.19-.49,1.75,1.75,0,0,0,.05-.4,1.21,1.21,0,0,0-.32-.87,2.16,2.16,0,0,0-.89-.53,4,4,0,0,0-1.3-.19,9.92,9.92,0,0,0-1.48.12c-.54.08-1.23.22-2.07.43l.19-1c0-.24.1-.63.18-1.18a23.61,23.61,0,0,1,4.33-.41,9.16,9.16,0,0,1,1.83.18,4.72,4.72,0,0,1,1.57.61,2.91,2.91,0,0,1,1,1,2.44,2.44,0,0,1,.32,1.19,4.53,4.53,0,0,1-.07.74,3.1,3.1,0,0,1-.21.67,8.2,8.2,0,0,1-.67,1.22,19.55,19.55,0,0,1-1.27,1.64q-.87,1-1.89,2.1c-.68.72-1.44,1.47-2.27,2.26H488q1.08,0,1.59,0c.34,0,.75,0,1.22-.09,0,.2,0,.46-.06.79s-.07.75-.11,1.28l-4.6,0Z" transform="translate(-95.7 -185.78)"/><path class="cls-4" d="M493.33,432.11c0-.25,0-.44,0-.59l.06-1.43c.81-.73,1.56-1.43,2.23-2.11s1.36-1.41,2.06-2.19,1.24-1.4,1.6-1.87a7.45,7.45,0,0,0,.58-.87,2,2,0,0,0,.2-.49,1.75,1.75,0,0,0,.05-.4,1.18,1.18,0,0,0-.33-.87,2.05,2.05,0,0,0-.88-.53,4,4,0,0,0-1.3-.19,10.15,10.15,0,0,0-1.49.12c-.53.08-1.22.22-2.06.43l.19-1c0-.24.1-.63.17-1.18a23.72,23.72,0,0,1,4.34-.41,9.16,9.16,0,0,1,1.83.18,4.66,4.66,0,0,1,1.56.61,2.86,2.86,0,0,1,1,1,2.44,2.44,0,0,1,.32,1.19,3.65,3.65,0,0,1-.08.74,3.1,3.1,0,0,1-.21.67,7.38,7.38,0,0,1-.67,1.22,17.61,17.61,0,0,1-1.27,1.64c-.57.69-1.2,1.39-1.88,2.1s-1.44,1.47-2.27,2.26h3.07q1.08,0,1.59,0c.34,0,.74,0,1.22-.09,0,.2,0,.46-.07.79s-.06.75-.1,1.28l-4.61,0Z" transform="translate(-95.7 -185.78)"/></svg>