<svg id="Layer_1" data-name="Layer 1" xmlns="http://www.w3.org/2000/svg" viewBox="0 0 250.22 35.29"><defs><style>.cls-1{fill:#231f20;}</style></defs><path class="cls-1" d="M191.19,405.4c-.22-3.54-.46-6.37-.75-8.49a27.58,27.58,0,0,0,5,1.73,18.15,18.15,0,0,0,3.83.48,8,8,0,0,0,3.46-.63,2,2,0,0,0,1.28-1.88,2.74,2.74,0,0,0-.12-.81,3.51,3.51,0,0,0-.48-.87,6,6,0,0,0-1-1.06l-4.69-4.09c-1.1-.93-1.86-1.6-2.29-2a14.67,14.67,0,0,1-2.06-2.37,8.32,8.32,0,0,1-1.08-2.23,8.49,8.49,0,0,1-.33-2.4,8.75,8.75,0,0,1,.53-3,8.94,8.94,0,0,1,4.45-4.91,12.39,12.39,0,0,1,3.78-1.26,24.67,24.67,0,0,1,4.16-.34,48.55,48.55,0,0,1,9.17,1c.05,1.15.1,2.2.17,3.15s.22,2.63.47,5a22.91,22.91,0,0,0-4.18-1.28,17.82,17.82,0,0,0-3.26-.36,6.54,6.54,0,0,0-3.23.72,2.09,2.09,0,0,0-1.28,1.79,2.51,2.51,0,0,0,.2,1,4.15,4.15,0,0,0,.75,1.11,13,13,0,0,0,1.44,1.4c.6.5,1.54,1.25,2.81,2.25l1.8,1.42a22.62,22.62,0,0,1,1.72,1.57,17.09,17.09,0,0,1,1.59,1.82,9.59,9.59,0,0,1,1,1.64,7.39,7.39,0,0,1,.54,1.51,7.62,7.62,0,0,1,.17,1.63,9.1,9.1,0,0,1-4.11,7.6,12.58,12.58,0,0,1-4.32,1.84,23.35,23.35,0,0,1-5,.52A56.55,56.55,0,0,1,191.19,405.4Z" transform="translate(-190.44 -371.28)"/><path class="cls-1" d="M219.78,405.92l.49-6.37.65-12.46.27-8.81c0-.95,0-1.89,0-2.84,0-.71,0-1.88,0-3.51,2.19.05,3.95.07,5.28.07s3,0,5.26-.11,4.11-.11,5.65-.11a21.31,21.31,0,0,1,5,.42,9.16,9.16,0,0,1,2.9,1.34,8.63,8.63,0,0,1,2.14,2.12,9.06,9.06,0,0,1,1.27,2.78,12.18,12.18,0,0,1,.42,3.18,11.87,11.87,0,0,1-1.62,6.1,10,10,0,0,1-4.55,4.13,15.49,15.49,0,0,1-6.6,1.37,18.74,18.74,0,0,1-3.11-.3c-.14-.76-.39-1.9-.75-3.41s-.67-2.63-.9-3.36a11.4,11.4,0,0,0,2.29.22,5.18,5.18,0,0,0,3.75-1.2,4,4,0,0,0,1.23-3,3.93,3.93,0,0,0-.27-1.5,2.49,2.49,0,0,0-.87-1.09,3.19,3.19,0,0,0-1.32-.54,9.05,9.05,0,0,0-1.65-.13c-.59,0-1.22,0-1.86.05l-2.09.15c-.22,3.2-.38,6.77-.5,10.68q-.31,10.71-.32,12.85v3.24l-5-.05Z" transform="translate(-190.44 -371.28)"/><path class="cls-1" d="M247.77,405.92l2.07-3.59,12.88-24.25,1.37-2.71c.4-.8,1-1.95,1.67-3.44q4.38,0,6.4.05,3.51,0,6.49-.05l3.64,10.38,7.39,20,1.44,3.63-5.23-.05q-2.1,0-6.16.05-1.1-4.11-3.16-9.66H264q-2.16,4.38-4.48,9.66l-5.68-.05C252.61,405.87,250.58,405.89,247.77,405.92ZM267.05,389h7.73q-2.88-8.77-3.15-9.67-1.65,3.66-2.79,6Z" transform="translate(-190.44 -371.28)"/><path class="cls-1" d="M293.69,405.92q.48-4.38.75-7.89t.47-8.15q.21-4.62.3-9.77c.07-3.43.1-6.15.1-8.18,2.08.05,3.75.07,5,.07s3,0,4.86-.11,3.77-.11,5.57-.11a56.39,56.39,0,0,1,5.68.25,14.29,14.29,0,0,1,3.4.72,10.05,10.05,0,0,1,2.58,1.33,8.28,8.28,0,0,1,1.74,1.76,7.52,7.52,0,0,1,1.08,2.28,9.72,9.72,0,0,1,.39,2.8,11.2,11.2,0,0,1-.42,3.12,9.06,9.06,0,0,1-1.34,2.74,8.66,8.66,0,0,1-2.29,2.22,19.89,19.89,0,0,1-3.87,1.9l1.29,3.17c.37.88.76,1.77,1.18,2.69l3.33,7.29c.15.32.42.94.8,1.87l-5.53-.05c-1.19,0-3.15,0-5.87.05-.26-.86-.75-2.46-1.44-4.8-.29-1-.53-1.74-.73-2.27q-.6-1.77-1.77-5l-2.57-7a15.07,15.07,0,0,0,2.64.24,9.52,9.52,0,0,0,3.3-.54,4.4,4.4,0,0,0,2.24-1.7,4.26,4.26,0,0,0,.76-2.41,3.17,3.17,0,0,0-.57-1.88,3.41,3.41,0,0,0-1.8-1.21,13.19,13.19,0,0,0-3.8-.4c-.58,0-1.18,0-1.81,0s-1.35.05-2.18.06c-.21,3.4-.4,7.56-.56,12.45s-.27,9.71-.32,14.42l-5.41-.05Z" transform="translate(-190.44 -371.28)"/><path class="cls-1" d="M337,405.92q1.24-12.1,1.49-26.64l-10.6.27.12-2.76q.1-2.22.15-4.86,7.08,0,16.48.05l6.15,0h6l3.23,0-.15,2.44c-.06,1.31-.11,2.39-.13,3.24s0,1.5,0,1.94q-5.33-.27-8.78-.27H349.2c-.25,2.93-.45,5.64-.58,8.12-.18,3.57-.33,7-.43,10.38s-.15,6.07-.15,8.14l-5.27-.05Z" transform="translate(-190.44 -371.28)"/><path class="cls-1" d="M357.39,405.92l2.07-3.59,12.88-24.25,1.37-2.71c.4-.8,1-1.95,1.67-3.44q4.38,0,6.4.05c2.34,0,4.5,0,6.5-.05l3.63,10.38,7.39,20,1.44,3.63-5.23-.05q-2.1,0-6.16.05-1.1-4.11-3.16-9.66H373.66q-2.16,4.38-4.48,9.66l-5.68-.05C362.23,405.87,360.2,405.89,357.39,405.92ZM376.67,389h7.73q-2.88-8.77-3.15-9.67-1.65,3.66-2.79,6Z" transform="translate(-190.44 -371.28)"/><path class="cls-1" d="M403.38,405.92l.5-5.23,1-17.73.28-7.15v-3.88q3.86,0,6.83.05c1.41,0,3.4,0,6-.05l10.63,19.33L430,394.1c.18-2.79.38-6.7.57-11.73s.3-8.51.3-10.44c2,0,3.67.05,4.9.05l4.87-.05-.6,7.42L438.94,400l-.15,5.95c-2.16,0-4.17-.05-6.05-.05q-2.34,0-6.48.05-1.29-2.44-1.92-3.54l-4.17-7.1c-1.38-2.32-2.65-4.55-3.81-6.67q-1.14-2-2.36-4.44L413.46,396l-.25,9.94c-2.06,0-3.63-.05-4.7-.05Z" transform="translate(-190.44 -371.28)"/></svg>